<?xml version="1.0" encoding="utf-8"?>
<!-- Generator: Adobe Illustrator 16.0.0, SVG Export Plug-In . SVG Version: 6.00 Build 0)  -->
<!DOCTYPE svg PUBLIC "-//W3C//DTD SVG 1.1//EN" "http://www.w3.org/Graphics/SVG/1.1/DTD/svg11.dtd">
<svg version="1.1" id="Layer_1" xmlns="http://www.w3.org/2000/svg" xmlns:xlink="http://www.w3.org/1999/xlink" x="0px" y="0px"
	 width="410.824px" height="410.824px" viewBox="0 0 410.824 410.824" enable-background="new 0 0 410.824 410.824"
	 xml:space="preserve">
<g>
	<path d="M205.41,0C91.895,0,0,91.895,0,205.41c0,113.521,91.895,205.414,205.41,205.414c113.52,0,205.414-91.894,205.414-205.414
		C410.824,91.895,318.156,0,205.41,0L205.41,0z M205.41,391.521c-102.703,0-186.105-83.403-186.105-186.11
		S102.707,19.305,205.41,19.305c102.707,0,186.109,83.402,186.109,186.105C391.52,308.117,308.117,391.521,205.41,391.521
		L205.41,391.521z M205.41,391.521"/>
	<path d="M277.23,146.723c-31.664,32.433-63.324,64.867-94.984,97.3c-16.219-16.988-32.434-33.98-48.652-50.968
		c-8.492-9.266-22.395,4.632-13.899,13.902c18.532,19.305,37.067,38.609,55.598,57.914c3.863,3.863,10.039,3.863,13.902,0
		c33.977-34.75,67.958-69.5,101.934-104.25C299.625,151.355,285.723,137.457,277.23,146.723L277.23,146.723z M277.23,146.723"/>
</g>
</svg>
